<svg xmlns="http://www.w3.org/2000/svg" viewBox="0 0 48 48">
  <path fill="#EA4335" d="M24 9.5c3.3 0 6.3 1.1 8.6 3.3l6.4-6.4C34.9 2.5 29.9 0 24 0 14.6 0 6.6 5.4 2.7 13.3l7.7 6C12.3 13.1 17.7 9.5 24 9.5z"/>
  <path fill="#4285F4" d="M46.1 24.5c0-1.6-.1-2.7-.4-4H24v7.6h12.8c-.5 3-2.2 5.6-4.9 7.3l7.6 5.9c4.4-4.1 6.6-10.2 6.6-16.8z"/>
  <path fill="#FBBC05" d="M10.4 28.9c-.6-1.7-.9-3.5-.9-5.4s.3-3.7.9-5.4l-7.7-6C.9 15.7 0 19.7 0 23.5s.9 7.8 2.7 11.4l7.7-6z"/>
  <path fill="#34A853" d="M24 48c6.5 0 11.9-2.1 15.9-5.7l-7.6-5.9c-2.1 1.4-4.8 2.2-8.3 2.2-6.3 0-11.7-3.6-14.4-8.8l-7.7 6C6.6 42.6 14.6 48 24 48z"/>
</svg>
